<svg t="1685869765761" class="icon" viewBox="0 0 1024 1024" version="1.1" xmlns="http://www.w3.org/2000/svg" p-id="6037" width="200" height="200"><path d="M512 20.48c271.36 0 491.52 220.16 491.52 491.52S783.36 1003.52 512 1003.52 20.48 783.36 20.48 512 240.64 20.48 512 20.48m0-20.48C229.376 0 0 229.376 0 512s229.376 512 512 512 512-229.376 512-512S794.624 0 512 0z" fill="#e0620d" p-id="6038"></path><path d="M512 226.304l-283.648 143.36v284.672l283.648 143.36L795.648 655.36V369.664L512 226.304z m54.272 370.688h-32.768l-5.12-3.072-20.48-49.152h-95.232l-20.48 49.152-4.096 3.072h-32.768l-4.096-7.168 86.016-198.656 4.096-3.072h37.888l4.096 3.072 86.016 198.656-3.072 7.168z m88.064-5.12l-5.12 5.12h-29.696l-5.12-5.12V394.24l5.12-5.12h29.696l5.12 5.12v197.632z" fill="#e0620d" p-id="6039"></path><path d="M427.008 512h67.584L460.8 427.008z" fill="#e0620d" p-id="6040"></path></svg>